<svg width="65" height="64" viewBox="0 0 65 64" fill="none" xmlns="http://www.w3.org/2000/svg">
<path d="M47.1816 27.0197C48.0225 27.8605 49.1516 28.3169 50.3447 28.3169C51.5379 28.3169 52.667 27.8525 53.5078 27.0197L62.8049 17.7787C63.6457 16.9378 64.1102 15.8248 64.1102 14.6316C64.1102 13.4384 63.6457 12.3253 62.8049 11.4845L52.9393 1.68296C51.2496 0.00932613 48.3027 0.00932613 46.6131 1.68296L37.324 10.924C36.4832 11.7648 36.0187 12.8779 36.0187 14.071C36.0187 15.2642 36.4832 16.3773 37.324 17.2181L47.1816 27.0197ZM40.0307 13.6146L49.3277 4.37358C49.4879 4.21343 49.6801 4.1894 49.7762 4.1894C49.8723 4.1894 50.0645 4.21343 50.2246 4.37358L60.0902 14.1832C60.2504 14.3433 60.2744 14.5355 60.2744 14.6316C60.2744 14.7277 60.2504 14.9199 60.0902 15.08L50.8012 24.321C50.641 24.4812 50.4488 24.5052 50.3527 24.5052C50.2566 24.5052 50.0645 24.4812 49.9043 24.321L40.0307 14.5195C39.8705 14.3593 39.8465 14.1671 39.8465 14.071C39.8465 13.975 39.8705 13.7748 40.0307 13.6146ZM17.3125 37.1175C15.6229 35.4439 12.668 35.4439 10.9863 37.1175L9.76113 38.3347C8.53594 39.5599 7.23867 41.73 6.7582 43.3876L2.66621 57.3773C2.32187 58.5464 2.47402 59.6355 3.09063 60.4523C3.65117 61.197 4.54805 61.6214 5.54902 61.6214C5.94941 61.6214 6.37383 61.5574 6.79824 61.4212L21.4045 56.9289C23.0541 56.4244 25.2242 55.1191 26.4414 53.9099L27.1621 53.1972C28.0029 52.3564 28.4674 51.2433 28.4674 50.0502C28.4674 48.857 28.0029 47.7439 27.1621 46.9031L17.3125 37.1175ZM24.4555 50.5066L23.7348 51.2193C22.966 51.988 21.3164 52.973 20.2754 53.2933L11.5389 55.9759L8.23164 52.0121L10.4418 44.4607C10.7461 43.4277 11.715 41.7941 12.4758 41.0414L13.701 39.8242C13.8611 39.664 14.0533 39.64 14.1494 39.64C14.2455 39.64 14.4377 39.664 14.5979 39.8242L24.4475 49.6177C24.6076 49.7779 24.6316 49.9701 24.6316 50.0662C24.6396 50.1623 24.6156 50.3544 24.4555 50.5066ZM17.9451 1.68296C16.2555 0.00932613 13.3086 0.00932613 11.6189 1.68296L1.76133 11.4845C0.920508 12.3253 0.456055 13.4384 0.456055 14.6316C0.456055 15.8248 0.920508 16.9378 1.76133 17.7787L46.6211 62.3822C47.4619 63.223 48.591 63.6794 49.7842 63.6794C50.9773 63.6794 52.1064 63.215 52.9473 62.3822L62.8129 52.5726C63.6537 51.7318 64.1182 50.6187 64.1182 49.4255C64.1182 48.2324 63.6537 47.1193 62.8129 46.2785L17.9451 1.68296ZM60.0902 49.874L50.2326 59.6835C50.0725 59.8437 49.8803 59.8677 49.7842 59.8677C49.6881 59.8677 49.4959 59.8437 49.3357 59.6835L4.47598 15.08C4.31582 14.9199 4.2918 14.7277 4.2918 14.6316C4.2918 14.5355 4.31582 14.3433 4.47598 14.1832L14.3336 4.37358C14.4937 4.21343 14.6859 4.1894 14.782 4.1894C14.8781 4.1894 15.0703 4.21343 15.2305 4.37358L16.5678 5.70288L11.9953 10.2593C11.2426 11.0041 11.2426 12.2132 11.9953 12.958C12.3717 13.3263 12.8602 13.5185 13.3486 13.5185C13.8371 13.5185 14.3336 13.3343 14.702 12.958L19.2824 8.40151L21.5086 10.6197L19.5307 12.5896C18.7859 13.3343 18.7859 14.5435 19.5307 15.2882C19.907 15.6566 20.3955 15.8488 20.884 15.8488C21.3725 15.8488 21.8689 15.6646 22.2373 15.2882L24.2152 13.3183L26.4414 15.5365L21.8609 20.0929C21.1082 20.8376 21.1082 22.0468 21.8609 22.7916C22.2373 23.1599 22.7258 23.3521 23.2143 23.3521C23.7027 23.3521 24.1912 23.1679 24.5676 22.7916L29.148 18.2351L31.3822 20.4533L29.4043 22.4232C28.6596 23.1679 28.6596 24.3771 29.4043 25.1218C29.7807 25.4982 30.2691 25.6824 30.7576 25.6824C31.2461 25.6824 31.7426 25.4982 32.1109 25.1218L34.0889 23.1519L36.323 25.3701L31.7426 29.9265C30.9979 30.6712 30.9979 31.8804 31.7426 32.6251C32.1189 32.9935 32.6074 33.1857 33.0959 33.1857C33.5844 33.1857 34.0809 33.0015 34.4492 32.6251L39.0297 28.0687L41.2639 30.2869L39.2859 32.2568C38.5412 33.0015 38.5412 34.2107 39.2859 34.9554C39.6623 35.3318 40.1508 35.516 40.6393 35.516C41.1277 35.516 41.6242 35.3318 41.9926 34.9554L43.9705 32.9855L46.1967 35.2037L41.6162 39.7601C40.8635 40.5048 40.8635 41.714 41.6162 42.4587C41.9926 42.8351 42.4811 43.0193 42.9695 43.0193C43.458 43.0193 43.9465 42.8351 44.3229 42.4587L48.9033 37.9023L51.1295 40.1205L49.1516 42.0904C48.4068 42.8351 48.4068 44.0443 49.1516 44.789C49.5279 45.1574 50.0164 45.3496 50.5049 45.3496C50.9934 45.3496 51.4898 45.1654 51.8582 44.789L53.8361 42.8191L56.0703 45.0373L51.4898 49.5937C50.7371 50.3384 50.7371 51.5476 51.4898 52.2923C51.8662 52.6607 52.3547 52.8529 52.8432 52.8529C53.3316 52.8529 53.8281 52.6687 54.1965 52.2923L58.777 47.7359L60.0502 49.0091C60.2104 49.1693 60.2344 49.3615 60.2344 49.4576C60.2344 49.5537 60.2504 49.7138 60.0902 49.874Z" fill="#303030"/>
</svg>
