<svg width="60" height="82" viewBox="0 0 60 82" fill="none" xmlns="http://www.w3.org/2000/svg">
<path d="M43.3397 61.2736V73.9256L49.4014 76.4485V57.958C47.4973 59.2639 45.4665 60.3747 43.3397 61.2736ZM10.5984 57.958V76.3223L16.6601 73.7994V61.2736C14.5333 60.3748 12.5025 59.264 10.5984 57.958ZM29.9998 63.9652C27.1374 63.9667 24.2861 63.6105 21.512 62.9048V82L29.9998 78.4674L38.4876 81.9998V62.9048C35.7136 63.6104 32.8622 63.9667 29.9998 63.9652ZM29.9998 0C13.7023 0 0.443359 13.259 0.443359 29.5566C0.443359 45.8542 13.7023 59.1131 29.9998 59.1131C46.2973 59.1131 59.5564 45.8541 59.5564 29.5565C59.5564 13.2588 46.2974 0 29.9998 0ZM29.9998 52.8675C17.0796 52.8675 6.56804 42.356 6.56804 29.4357C6.56804 16.5153 17.0796 6.00377 29.9998 6.00377C42.9201 6.00377 53.4316 16.5153 53.4316 29.4357C53.4316 42.3561 42.9202 52.8675 29.9998 52.8675ZM29.9998 10.8557C19.755 10.8557 11.42 19.1905 11.42 29.4357C11.42 39.6809 19.755 48.0154 29.9998 48.0154C40.2447 48.0154 48.5797 39.6806 48.5797 29.4355C48.5797 19.1905 40.2448 10.8557 29.9998 10.8557ZM37.6362 40.2792L29.9998 36.2646L22.3636 40.2792L23.822 31.7762L17.6441 25.7544L26.1819 24.5136L29.9998 16.7771L33.8179 24.5136L42.3557 25.7544L36.1778 31.7762L37.6362 40.2792Z" fill="#303030"/>
</svg>
