<svg width="78" height="82" viewBox="0 0 78 82" fill="none" xmlns="http://www.w3.org/2000/svg">
<path d="M7.58869 40.6619C7.79765 39.8261 8.45934 38.6072 9.05137 37.9455C9.92202 36.9703 10.3748 36.7266 11.3847 36.7266C12.4295 36.7266 12.9519 37.0052 14.0663 38.2241C15.1111 39.3037 15.6683 40.2788 16.121 41.9504C16.5737 43.5872 16.713 44.9803 16.6086 47.0002C16.5041 48.9156 16.2255 50.239 15.7031 51.2489C15.2852 52.0847 14.5887 52.9902 14.1359 53.2688C13.718 53.5474 12.9519 53.7912 12.3946 53.7912C11.8026 53.7912 10.9668 53.3384 10.0265 52.5026C9.12103 51.6668 8.35486 50.4827 7.90212 49.2638C7.44939 47.9753 7.20561 46.4778 7.20561 44.7365C7.17078 43.3086 7.34491 41.4629 7.58869 40.6619Z" fill="#303030"/>
<path d="M10.1312 43.3438C10.2357 42.299 10.5143 41.0801 10.7581 40.6274C11.0019 40.1747 11.3501 39.8961 11.5939 39.9657C11.8029 40.0354 12.3253 40.697 12.7432 41.4632C13.1611 42.1946 13.6138 43.7617 13.7531 44.911C13.9272 46.4085 13.8228 47.4881 13.4049 48.8463C13.0914 49.8214 12.6735 50.6572 12.4994 50.6572C12.3253 50.6572 11.8377 50.2393 11.4894 49.7169C11.1064 49.1597 10.6188 47.9756 10.375 47.0005C10.1661 46.0602 10.0268 44.3886 10.1312 43.3438Z" fill="white"/>
<path d="M9.19028 32.8952C9.74749 32.6863 11.6281 32.4077 13.3694 32.2336C15.1107 32.0943 17.0609 31.9201 17.7226 31.8853C18.3843 31.8505 19.1504 32.0246 19.3942 32.2684C19.638 32.5122 19.8121 33.0694 19.8121 33.5221C19.8121 33.94 19.6032 34.3928 19.3942 34.4972C19.1504 34.6365 16.9913 34.9151 14.5883 35.1589C11.3843 35.4375 9.95645 35.751 9.22511 36.2385C8.66789 36.5868 7.8669 37.5271 7.44899 38.2932C6.99626 39.0594 6.47387 40.5569 6.23009 41.6017C5.98631 42.6465 5.88184 44.4574 5.98631 45.6066C6.05596 46.7559 6.5087 48.6365 6.96143 49.7857C7.48382 51.1788 8.28481 52.3977 10.9316 54.9748L15.633 54.731C19.1853 54.5569 20.439 54.5917 20.7873 54.9399C21.031 55.1489 21.24 55.7061 21.2052 56.1588C21.2052 56.5767 20.9266 57.0295 20.6131 57.134C20.2649 57.2384 18.1753 57.4822 15.9813 57.6912C13.0908 57.935 11.5584 57.935 10.5137 57.6563C9.67784 57.4474 8.35446 56.6812 7.51865 55.9151C6.71765 55.1837 5.5684 53.6514 4.97637 52.537C4.38433 51.3877 3.68781 49.7857 3.47886 48.9151C3.20025 47.94 3.09578 45.9549 3.16543 43.6912C3.2699 40.5569 3.44403 39.7211 4.31468 37.8057C4.97637 36.4126 5.88184 35.1241 6.75248 34.3928C7.51865 33.7659 8.63307 33.0694 9.19028 32.8952Z" fill="#303030"/>
<path d="M38.9655 30.6323C46.7316 29.9706 53.6271 29.3786 54.2888 29.3089C54.9505 29.2393 55.8908 29.1348 56.3784 29.1C56.8659 29.0652 57.5276 29.3089 57.841 29.6572C58.1545 30.0055 58.8162 31.5378 59.3037 33.0701C59.8261 34.6025 60.3485 37.284 60.5226 38.9905C60.7316 40.8711 60.7316 43.9358 60.5226 46.6522C60.3485 49.1596 59.9654 52.886 59.6171 55.0103C59.1992 57.6223 59.0251 60.8611 59.0251 65.1098C59.0251 71.2391 59.0599 71.4481 60.1395 74.5824C60.7664 76.3585 61.1843 78.065 61.0798 78.3436C60.9753 78.6222 60.6271 78.9356 60.2788 79.0401C59.9654 79.1098 54.9853 79.5973 49.2391 80.0849C43.4928 80.5724 36.2839 81.1993 33.2192 81.4779C30.1546 81.7565 26.9854 82.0003 26.1496 82.0003C24.8959 82.0003 24.6173 81.861 24.1994 81.0252C23.9208 80.5028 23.3635 79.0053 22.9456 77.6471C22.3188 75.7317 22.1446 74.0949 22.0053 69.8113C21.866 65.3884 22.0053 63.0551 22.7367 56.9258C23.2242 52.8163 23.6422 47.8362 23.6422 45.8512C23.6422 43.9009 23.3984 41.08 23.0849 39.5825C22.7715 38.1199 22.2143 36.1696 21.866 35.2293C21.3785 34.0452 21.3088 33.4184 21.5526 32.896C21.7964 32.4084 22.3536 32.1647 23.3635 32.0254C24.1994 31.9557 31.1993 31.3288 38.9655 30.6323Z" fill="#303030"/>
<path d="M39.3135 33.5922C46.8707 32.9654 53.1393 32.4082 53.209 32.3385C53.2786 32.2689 53.9751 32.1992 54.7065 32.1992C55.995 32.1992 56.0299 32.234 56.5522 34.0102C56.8308 35.0201 57.2139 36.7266 57.4229 37.7713C57.6318 38.8161 57.7711 41.1146 57.7711 42.8211C57.7711 44.5275 57.3881 49.0897 56.9353 52.9205C56.4826 56.7514 55.995 61.3135 55.8557 63.02C55.7164 64.7961 55.7861 67.5125 56.0299 69.2886C56.2388 70.9951 56.6219 73.2936 56.9353 74.3384C57.2139 75.3831 57.3881 76.2886 57.3532 76.3234C57.2836 76.3931 50.9105 76.9503 43.1443 77.6468C35.3782 78.3085 28.4479 78.8657 27.7165 78.8657C26.4628 78.8657 26.3931 78.7961 25.9056 77.1941C25.627 76.2886 25.2091 74.3732 25.0001 72.9453C24.7563 71.3782 24.6867 68.6966 24.7912 66.3284C24.9305 64.1344 25.3484 59.816 25.7663 56.7514C26.2887 52.9902 26.5324 49.4728 26.5324 45.9554C26.5324 41.846 26.3583 40.1395 25.8011 37.9455C25.418 36.4131 25.1742 35.0549 25.3135 34.9505C25.4528 34.846 31.7563 34.2539 39.3135 33.5922Z" fill="white"/>
<path d="M29.9808 71.9705C30.2594 71.6919 33.5678 71.2392 39.3141 70.7168C44.1897 70.2641 48.7519 69.881 49.4135 69.8462C50.0752 69.8114 50.8414 69.9855 51.0852 70.2293C51.329 70.473 51.4683 71.0651 51.4334 71.5178C51.3638 72.1447 51.0504 72.4581 50.2842 72.6322C49.6922 72.7715 45.0603 73.2591 39.9758 73.677C31.7221 74.4083 30.6425 74.4432 30.1201 73.9904C29.8067 73.7118 29.528 73.2243 29.528 72.9457C29.528 72.6671 29.737 72.2143 29.9808 71.9705Z" fill="#303030"/>
<path d="M37.5728 64.9706C41.6822 64.5875 45.6872 64.2044 46.4534 64.1348C47.2195 64.0651 48.4384 63.9955 49.2046 64.0303C50.1449 64.0651 50.7021 64.2741 51.0155 64.7616C51.3986 65.3188 51.4334 65.5974 51.0504 66.085C50.7021 66.6074 49.5529 66.8163 43.8414 67.3735C40.1151 67.7218 35.4833 68.1049 33.5678 68.2442C30.9211 68.4183 29.9808 68.3487 29.6325 68.0004C29.3887 67.7566 29.1798 67.3039 29.1798 67.0253C29.1798 66.7467 29.3887 66.2939 29.6325 66.085C29.9111 65.8064 33.0455 65.3885 37.5728 64.9706Z" fill="#303030"/>
<path d="M30.1201 60.0601C30.5728 59.6771 32.9758 59.3288 39.1051 58.8064C43.737 58.3885 48.334 58.0402 49.3439 58.0054C50.8414 57.9706 51.2245 58.1099 51.5031 58.6671C51.7353 59.1315 51.7353 59.5958 51.5031 60.0601C51.2593 60.5477 50.7021 60.7915 49.6922 60.9308C48.8563 61.0004 44.2593 61.4532 39.4534 61.8711C31.6524 62.5676 30.6425 62.6024 30.1201 62.1497C29.8067 61.8711 29.528 61.3835 29.528 61.1049C29.528 60.8263 29.8067 60.3387 30.1201 60.0601Z" fill="#303030"/>
<path d="M31.0256 53.7567C31.0952 53.7219 34.7171 53.3736 39.14 52.9209C43.5628 52.503 48.1598 52.1199 49.4135 52.085C50.8414 52.0502 51.8514 52.1895 52.13 52.4681C52.3737 52.7119 52.5479 53.0602 52.5479 53.2691C52.5479 53.4781 52.3737 53.896 52.13 54.2094C51.7469 54.7318 50.1449 54.9756 41.6822 55.7069C36.1449 56.1945 31.4086 56.4731 31.13 56.3338C30.8166 56.1597 30.5032 55.8462 30.4335 55.6373C30.329 55.3935 30.4335 54.8711 30.6076 54.488C30.7818 54.1049 30.9907 53.7915 31.0256 53.7567Z" fill="#303030"/>
<path d="M28.5878 38.3637C28.9708 37.8413 29.9111 37.6324 33.5678 37.2841C36.0753 37.0055 38.339 36.7965 38.6176 36.7617C38.8962 36.7617 39.3489 36.8662 39.5927 37.0055C39.8365 37.1448 40.1847 37.8761 40.3589 38.6423C40.533 39.4085 40.7071 41.8463 40.7071 44.0403C40.7419 46.9308 40.6375 48.1497 40.2892 48.4632C40.0106 48.7418 37.8514 49.09 34.9609 49.3338C32.2793 49.5428 29.8415 49.6472 29.5629 49.5428C29.145 49.4035 29.0057 48.3935 28.8315 44.702C28.6922 42.1249 28.4833 39.7916 28.3788 39.513C28.2395 39.2343 28.344 38.712 28.5878 38.3637Z" fill="#303030"/>
<path d="M33.115 40.4179C33.9508 40.3134 35.0653 40.1741 35.6573 40.1045C36.2493 40.0348 36.911 39.9303 37.12 39.8955C37.3638 39.8955 37.6424 40.2089 37.7468 40.6617C37.8513 41.0796 37.921 42.4378 37.921 45.9552L36.2842 46.2338C35.3439 46.3731 34.0205 46.4776 33.324 46.4776C32.4533 46.4776 31.9309 46.3034 31.8265 45.9552C31.722 45.6766 31.6523 44.3532 31.6523 40.592L33.115 40.4179Z" fill="white"/>
<path d="M44.259 36.9705C44.6073 36.5178 45.4431 36.274 47.6719 36.0651C49.3087 35.8909 50.9107 35.7516 51.259 35.7168C51.5724 35.7168 52.1296 36.0999 52.4431 36.6571C52.8958 37.3536 53.1048 38.5725 53.2092 41.2541C53.3137 44.4581 53.2441 44.9804 52.7217 45.4332C52.3038 45.7814 50.9107 46.0252 48.9257 46.1993C47.1844 46.3038 45.5127 46.3038 45.2341 46.1297C44.8511 45.9207 44.6421 44.9108 44.4331 42.4382C44.2938 40.5227 44.0849 38.677 43.9804 38.2939C43.8759 37.9108 44.0152 37.3188 44.259 36.9705Z" fill="#303030"/>
<path d="M47.3941 41.1839C47.3244 39.3382 47.3941 39.164 48.1254 39.0247H48.0906C48.5433 38.9551 49.1354 38.9202 49.414 38.9551C49.7622 38.9899 50.0408 39.6168 50.215 40.9053C50.3543 41.9501 50.4588 42.8556 50.3891 42.8904C50.3195 42.9252 49.6578 42.9949 47.4986 43.169L47.3941 41.1839Z" fill="white"/>
<path d="M61.3241 28.4727C61.5678 28.2638 62.2295 28.02 62.8216 27.9155C63.4136 27.8459 65.1201 27.7414 66.6524 27.7414C68.6723 27.7066 69.8215 27.8459 70.8315 28.3334C71.5977 28.6817 72.8514 29.6568 73.5827 30.4926C74.3489 31.3284 75.324 32.7911 75.7419 33.7662C76.1947 34.7065 76.717 36.622 76.9608 37.9453C77.1698 39.2687 77.2743 41.3931 77.1698 42.6468C77.0653 43.9005 76.6126 45.8508 76.1947 47C75.7419 48.1493 74.8365 49.7164 74.1748 50.4478C73.4782 51.2139 72.2942 52.0846 71.528 52.4328C70.6574 52.8159 68.7071 53.1294 66.3041 53.3035C62.7519 53.5473 62.4385 53.5124 62.0902 52.8856C61.8116 52.4677 61.8116 51.9453 61.9858 51.4229C62.1599 51.005 62.4037 50.6567 62.543 50.6567C62.7171 50.6567 64.4584 50.4826 66.4783 50.2736C69.5778 49.9602 70.3091 49.7861 71.3191 48.9851C71.9807 48.4627 72.8514 47.3483 73.1996 46.4776C73.5827 45.607 74.0006 44.0398 74.1748 42.9951C74.3489 41.811 74.3489 40.209 74.1051 38.816C73.8962 37.5623 73.3041 35.7165 72.8166 34.6717C72.2942 33.6269 71.3191 32.3384 70.6574 31.7812C69.9957 31.2588 68.9857 30.7364 68.3937 30.6319C67.8017 30.5274 66.2345 30.5623 64.9111 30.7364C63.5877 30.9105 62.1251 30.9105 61.7071 30.7364C61.2196 30.5623 60.9062 30.1444 60.9062 29.6568C60.8713 29.2389 61.0803 28.7165 61.3241 28.4727Z" fill="#303030"/>
<path d="M38.792 2.21419C43.389 1.83111 51.0507 1.13459 55.8566 0.68186C60.6626 0.229125 65.2247 -0.0843064 66.0257 0.0201708C66.8616 0.0898223 67.976 0.403254 68.568 0.68186C69.1601 0.960466 70.17 1.76146 70.8317 2.42315C71.4934 3.08484 72.4337 4.40821 72.9212 5.38334C73.4088 6.35846 74.0357 8.09974 74.3491 9.28382C74.767 10.851 74.8715 12.3485 74.7322 14.438C74.6277 16.1793 74.2794 18.1644 73.8267 19.3136C73.4436 20.3584 72.6078 21.8559 71.9809 22.5873C71.3541 23.3186 70.2048 24.2589 69.4387 24.642C68.2546 25.1992 65.0158 25.5823 48.3691 27.0101C37.5383 27.9504 24.4438 29.0997 19.2896 29.5872C12.6727 30.1793 9.46873 30.3186 8.4936 30.0748C7.72744 29.9007 6.50854 29.3783 5.81202 28.8907C5.08068 28.4032 4.00108 27.2887 3.37422 26.3833C2.74736 25.443 1.94636 23.9106 1.59811 22.9703C1.14537 21.8559 0.866765 19.9753 0.727462 17.7465C0.622984 15.0649 0.692636 13.7763 1.1802 12.1744C1.52845 11.0251 2.12049 9.5276 2.57323 8.86591C2.99114 8.20422 3.86178 7.19427 4.52347 6.63706C5.18516 6.07985 6.09063 5.48781 6.57819 5.31368C7.06575 5.13955 12.6379 4.51269 18.9413 3.95548C25.2796 3.39827 34.195 2.6321 38.792 2.21419Z" fill="#303030"/>
<path d="M26.4284 6.28873C36.493 5.38326 48.7865 4.30366 53.7666 3.85092C58.7466 3.39819 63.5874 3.01511 64.5625 2.98028C65.7466 2.94546 66.6521 3.15441 67.4183 3.64197C68.0451 4.02505 68.9506 4.86087 69.4033 5.45291C69.8909 6.07977 70.4829 7.15937 70.7964 7.82106C71.075 8.48275 71.458 10.0499 71.667 11.3036C71.9456 12.9404 71.9456 14.1593 71.667 15.6569C71.458 16.8061 70.9008 18.4777 70.4481 19.3832C69.9605 20.3583 69.1247 21.3334 68.4979 21.7165C67.8013 22.1344 66.3735 22.4827 64.9108 22.5872C63.5874 22.7265 56.274 23.3533 48.7168 24.015C41.1596 24.6767 29.3885 25.7215 22.5975 26.3135C15.8065 26.9056 9.74682 27.2887 9.18961 27.1842C8.6324 27.0797 7.58762 26.4528 6.92593 25.826C6.26425 25.1643 5.35878 23.9106 4.90604 23.0399C4.48813 22.1344 4.00057 20.7414 3.79162 19.9056C3.61749 19.1046 3.44336 17.6419 3.44336 16.7016C3.44336 15.7265 3.65231 14.1593 3.93092 13.2191C4.20953 12.2439 4.80156 10.9554 5.2543 10.2937C5.70703 9.632 6.54285 8.79618 7.10006 8.48275C7.93588 7.99519 11.8364 7.54245 26.4284 6.28873Z" fill="white"/>
<path d="M5.63889 12.0005C6.12645 10.9558 6.99709 9.80651 7.51948 9.49307C8.04187 9.14482 8.59908 8.86621 8.73838 8.86621C8.91251 8.86621 9.5742 9.10999 10.2359 9.3886C10.8976 9.6672 11.8379 10.503 12.3254 11.2344C12.7782 11.9309 13.4399 13.2194 13.7185 14.0901C14.0319 14.9607 14.3105 16.7717 14.3453 18.095C14.3453 19.5925 14.1364 21.1945 13.7881 22.2741C13.4399 23.2492 12.9175 24.3288 12.5692 24.7468C12.2558 25.1298 11.6289 25.6522 11.1762 25.8612C10.7583 26.105 9.92246 26.2094 9.36524 26.105C8.70356 26.0005 7.90256 25.4084 7.17122 24.6074C6.57919 23.8413 5.74337 22.3438 5.36028 21.1945C4.90755 19.8363 4.66377 18.2343 4.69859 16.5279C4.69859 14.4383 4.87272 13.5329 5.63889 12.0005Z" fill="#303030"/>
<path d="M7.79688 16.876C7.79688 15.0999 7.971 13.6024 8.24961 13.1496C8.49339 12.6969 8.9113 12.3486 9.1899 12.3486C9.46851 12.3486 10.0605 13.08 10.4785 14.0203C10.8615 14.9257 11.2794 16.5277 11.3491 17.5725C11.4188 18.6173 11.2794 20.1844 11.0357 21.0551C10.7222 22.0302 10.3392 22.6571 9.95607 22.7267C9.57299 22.7615 9.08543 22.274 8.59787 21.3337C7.971 20.1148 7.79688 19.279 7.79688 16.876Z" fill="white"/>
</svg>
